<?xml version="1.0" encoding="UTF-8"?>
<svg width="148px" height="28px" viewBox="0 0 148 28" version="1.1" xmlns="http://www.w3.org/2000/svg" xmlns:xlink="http://www.w3.org/1999/xlink">
    <!-- Generator: sketchtool 52.6 (67491) - http://www.bohemiancoding.com/sketch -->
    <title>283613AA-6E3B-4091-ADCE-A3073029D10D</title>
    <desc>Created with sketchtool.</desc>
    <defs>
        <linearGradient x1="50.0045056%" y1="40.019589%" x2="50.0045056%" y2="0.00537956711%" id="linearGradient-1">
            <stop stop-color="#F2827F" offset="0%"></stop>
            <stop stop-color="#FF8278" offset="100%"></stop>
        </linearGradient>
    </defs>
    <g id="City-Page" stroke="none" stroke-width="1" fill="none" fill-rule="evenodd">
        <g id="City-Page---Mobile" transform="translate(-14.000000, -6.000000)" fill-rule="nonzero">
            <g id="Header" transform="translate(0.000000, -31.000000)">
                <g id="drivehub_logo" transform="translate(14.000000, 37.000000)">
                    <g id="Layer0_0_FILL" fill="#0078FF">
                        <path d="M29.0547368,9.73518519 L34.494386,7.07777778 L28.6133333,8.58148148 C27.9048392,6.98621824 26.9005164,5.5391742 25.6533333,4.31666667 C23.0913613,1.67277758 19.5485619,0.204301175 15.8645614,0.259259259 L2.71333333,0.259259259 C2.56531815,0.268002666 2.41793588,0.285315722 2.27192982,0.311111111 C2.26000124,0.318111007 2.24673158,0.322527587 2.23298246,0.324074074 C1.81864203,0.409874891 1.43383936,0.601987338 1.11649123,0.881481481 C1.02167443,0.963986211 0.934750191,1.05511962 0.856842105,1.1537037 C0.465347915,1.60233294 0.252789277,2.17907066 0.259649123,2.77407407 L0.259649123,16.437037 L28.8210526,9.11296296 L28.6782456,9.19074074 L28.6133333,9.21666667 L0.259649123,23.0351852 L0.259649123,25.4203704 C0.247693762,26.0178471 0.455547939,26.5989648 0.843859649,27.0537037 C0.922379042,27.147786 1.00928495,27.2345614 1.10350877,27.312963 C1.4208569,27.5924571 1.80565958,27.7845696 2.22,27.8703704 C2.23374912,27.8719169 2.24701878,27.8763333 2.25894737,27.8833333 C2.40495427,27.9091229 2.55233621,27.926436 2.70035088,27.9351852 L15.8645614,27.9351852 C19.5490989,27.9929456 23.0929697,26.5240251 25.6533333,23.8777778 C28.3011982,21.3196526 29.7718828,17.7821726 29.7168421,14.1037037 C29.7280979,12.621789 29.5046376,11.1474154 29.0547368,9.73518519 Z" id="Shape"></path>
                    </g>
                    <g id="logo_text" transform="translate(41.111111, 7.411765)" fill="#30374B">
                        <path d="M0.791542289,14.4026471 C0.632835437,14.4065548 0.480081437,14.3419774 0.372024876,14.2252941 C0.261697327,14.109327 0.201891329,13.9540874 0.205800995,13.7938235 L0.205800995,0.643235294 C0.202181954,0.483022294 0.261946488,0.327890321 0.372024876,0.211764706 C0.480081437,0.0950814553 0.632835437,0.0305039896 0.791542289,0.0344117647 L5.83894362,0.0344117647 C7.88639967,0.0344117647 9.56886679,0.63617647 10.8863449,1.83970588 C11.5815831,2.4819447 12.1228151,3.27380945 12.4694295,4.15588235 C12.8393047,5.13400585 13.0253781,6.17240631 13.0182322,7.21852941 C13.0209077,7.76156029 12.9749899,8.30373599 12.8810315,8.83852941 C12.7922704,9.33201265 12.6543791,9.81531569 12.4694295,10.2811765 C12.1359989,11.175521 11.5930317,11.9762797 10.8863449,12.6158824 C10.2334591,13.2057443 9.46769977,13.6560672 8.63572637,13.9394118 C7.73553013,14.247248 6.78996178,14.4002841 5.83894362,14.3920588 L0.791542289,14.4026471 Z M3.53027861,11.9673529 L5.85741294,11.9673529 C6.37765928,11.9643037 6.8960527,11.9048407 7.40355887,11.79 C7.92149969,11.6672619 8.40386767,11.4252933 8.81250415,11.0832353 C9.27341927,10.6974538 9.63534589,10.2063554 9.86789386,9.65117647 C10.1721934,8.88429669 10.3124256,8.06181025 10.2794959,7.23705882 C10.3082687,6.40655547 10.1682247,5.57886809 9.86789386,4.80441176 C9.63534589,4.24923279 9.27341927,3.75813439 8.81250415,3.37235294 C8.3945957,3.03776195 7.90658563,2.8024654 7.38508955,2.68411765 C6.88459575,2.57005774 6.37328128,2.51059488 5.86005141,2.50676471 L3.53291708,2.50676471 C3.37421024,2.50285693 3.22145622,2.5674344 3.11339967,2.68411765 C3.00332128,2.80024327 2.94355675,2.95537524 2.94717579,3.11558824 L2.94717579,11.3611765 C2.94355675,11.5213895 3.00332128,11.6765214 3.11339967,11.7926471 C3.21835765,11.9058911 3.36559056,11.9701554 3.51972471,11.97 L3.53027861,11.9673529 Z" id="Shape"></path>
                        <path d="M17.7226318,14.4026471 L16.1764859,14.4026471 C16.0151078,14.4040736 15.8599258,14.3403881 15.7458099,14.2259008 C15.6316939,14.1114135 15.5682149,13.9557267 15.5696368,13.7938235 L15.5696368,0.643235294 C15.5682149,0.481332145 15.6316939,0.325645269 15.7458099,0.211158011 C15.8599258,0.0966707526 16.0151078,0.0329852218 16.1764859,0.0344117647 L22.0840299,0.0344117647 C22.7718269,0.026361952 23.4552,0.145713183 24.0998242,0.386470588 C24.6725502,0.630459784 25.1964122,0.976652018 25.6459701,1.40823529 C25.8657513,1.62897446 26.0620543,1.87204664 26.2317114,2.13352941 C26.4031796,2.39967484 26.5472753,2.68259569 26.6617828,2.97794118 C26.900313,3.61770448 27.0192723,4.29609417 27.0126998,4.97911765 C27.0454159,5.98657344 26.7691272,6.97982916 26.2211575,7.82470588 C25.8098767,8.44780074 25.2527651,8.96037509 24.5984959,9.31764706 C24.4701594,9.38448095 24.3747811,9.50122093 24.3346484,9.64058824 C24.2962097,9.78262661 24.3330634,9.93451807 24.432272,10.0429412 C24.9142333,10.6976471 25.3742073,11.3152941 25.812194,11.8958824 C26.2501808,12.4764706 26.7031189,13.0941177 27.1710083,13.7488235 C27.2702036,13.8689521 27.3028874,14.0309164 27.2580779,14.1802941 C27.2178106,14.3216555 27.0818601,14.4133294 26.9361841,14.3973529 L24.9599668,14.3973529 C24.775753,14.39355 24.5950034,14.3464022 24.432272,14.2597059 C24.2663647,14.1813605 24.1195696,14.0675178 24.0022007,13.9261765 L23.347859,13.0341176 L22.6935174,12.1420588 L21.3716418,10.3235294 C21.258617,10.1731606 21.1110812,10.0523869 20.9415705,9.97147059 C20.7787676,9.88495864 20.5980623,9.83782241 20.4138756,9.83382353 L18.9178607,9.83382353 C18.7564826,9.83239698 18.6013006,9.89608251 18.4871846,10.0105698 C18.3730687,10.125057 18.3095897,10.2807439 18.3110116,10.4426471 L18.3110116,13.7964706 C18.3146306,13.9566836 18.2548661,14.1118156 18.1447877,14.2279412 C18.0356443,14.3443513 17.8818404,14.4080018 17.7226318,14.4026471 Z M18.9152222,7.39588235 L22.0813914,7.39588235 C22.3429169,7.3907851 22.601321,7.3378597 22.8439104,7.23970588 C23.1152102,7.1441473 23.3620863,6.98957367 23.5668524,6.78705882 C23.7775834,6.56902623 23.9497845,6.31659767 24.0760779,6.04058824 C24.2178265,5.70630002 24.2844863,5.34480448 24.271325,4.98176471 C24.2693664,4.73094122 24.2428544,4.48091725 24.1921708,4.23529412 C24.1661845,4.09177911 24.1273289,3.95091257 24.0760779,3.81441176 C24.0233085,3.67676471 23.9643825,3.54264705 23.8993002,3.41205882 C23.7327905,3.14053957 23.5050433,2.91205138 23.2344046,2.745 C22.8814948,2.55246119 22.4826426,2.46089372 22.0813914,2.48029412 L18.9152222,2.48029412 C18.7538441,2.47886758 18.5986622,2.54255311 18.4845462,2.65704035 C18.3704302,2.77152763 18.3069512,2.9272145 18.3083731,3.08911765 L18.3083731,6.795 C18.3069512,6.95690314 18.3704302,7.11259001 18.4845462,7.22707729 C18.5986622,7.34156455 18.7538441,7.40525008 18.9152222,7.40382353 L18.9152222,7.39588235 Z" id="Shape"></path>
                        <path d="M32.1893864,14.4026471 L30.6432405,14.4026471 C30.4845336,14.4065548 30.3317797,14.3419774 30.2237231,14.2252941 C30.1133955,14.109327 30.0535895,13.9540874 30.0574992,13.7938235 L30.0574992,0.664411765 C30.0538802,0.504198765 30.1136446,0.349066792 30.2237231,0.232941176 C30.3317797,0.116257926 30.4845336,0.0516804602 30.6432405,0.0555882353 L32.1893864,0.0555882353 C32.3507645,0.0541616924 32.5059466,0.117847223 32.6200624,0.232334481 C32.7341783,0.346821739 32.7976574,0.502508615 32.7962355,0.664411765 L32.7962355,13.7964706 C32.7976574,13.9583737 32.7341783,14.1140606 32.6200624,14.2285479 C32.5059466,14.3430351 32.3507645,14.4067207 32.1893864,14.4052941 L32.1893864,14.4026471 Z" id="Shape"></path>
                        <path d="M48.4793267,0.606176471 L42.2155887,14.1485294 C42.1397373,14.2830419 41.9976088,14.3662013 41.8435638,14.3662013 C41.6895189,14.3662013 41.5473904,14.2830419 41.471539,14.1485294 L35.2341857,0.606176471 C35.1685115,0.483899162 35.1685115,0.336689074 35.2341857,0.214411765 C35.3084474,0.105573776 35.4357544,0.0457678546 35.5666335,0.0582352941 L37.3871808,0.0582352941 C37.5681574,0.0613863884 37.744608,0.11550278 37.8964063,0.214411765 C38.0558364,0.302498561 38.1826259,0.439913848 38.2578773,0.606176471 L41.6034627,7.83 C41.6685451,7.97470589 41.7564942,8.04705882 41.8673101,8.04705882 C41.978126,8.04705882 42.0660751,7.97470589 42.1311575,7.83 L45.476743,0.606176471 C45.5489316,0.441289959 45.6719273,0.303977245 45.82766,0.214411765 C45.9793976,0.115372167 46.1558865,0.0612440272 46.3368856,0.0582352941 L48.1574328,0.0582352941 C48.2938583,0.0433872249 48.4277611,0.102980955 48.5083499,0.214411765 C48.5651753,0.34154932 48.5542617,0.488863792 48.4793267,0.606176471 Z" id="Shape"></path>
                        <path d="M53.1547032,3.07852941 L53.1547032,5.46088235 C53.1532813,5.6227855 53.2167603,5.77847237 53.3308762,5.89295965 C53.4449921,6.0074469 53.6001742,6.07113244 53.7615522,6.06970588 L59.4738491,6.06970588 C59.6352271,6.06827933 59.7904093,6.13196486 59.9045251,6.24645212 C60.018641,6.3609394 60.08212,6.51662627 60.0806982,6.67852941 L60.0806982,7.94117647 C60.08212,8.10307961 60.018641,8.25876649 59.9045251,8.37325376 C59.7904093,8.48774102 59.6352271,8.55142655 59.4738491,8.55 L53.7615522,8.55 C53.6001742,8.54857345 53.4449921,8.61225898 53.3308762,8.72674624 C53.2167603,8.84123351 53.1532813,8.99692039 53.1547032,9.15882353 L53.1547032,11.3188235 C53.1532813,11.4807267 53.2167603,11.6364135 53.3308762,11.7509008 C53.4449921,11.8653881 53.6001742,11.9290736 53.7615522,11.9276471 L60.357738,11.9276471 C60.519116,11.9262205 60.6742982,11.989906 60.788414,12.1043933 C60.9025299,12.2188806 60.9660089,12.3745674 60.9645871,12.5364706 L60.9645871,13.7938235 C60.9660089,13.9557267 60.9025299,14.1114135 60.788414,14.2259008 C60.6742982,14.3403881 60.519116,14.4040736 60.357738,14.4026471 L51.0228159,14.4026471 C50.8614379,14.4040736 50.7062557,14.3403881 50.5921399,14.2259008 C50.478024,14.1114135 50.414545,13.9557267 50.4159668,13.7938235 L50.4159668,0.643235294 C50.414545,0.481332145 50.478024,0.325645269 50.5921399,0.211158011 C50.7062557,0.0966707526 50.8614379,0.0329852218 51.0228159,0.0344117647 L60.3550995,0.0344117647 C60.5164776,0.0329852218 60.6716597,0.0966707526 60.7857756,0.211158011 C60.8998914,0.325645269 60.9633705,0.481332145 60.9619486,0.643235294 L60.9619486,1.85294118 C60.9633705,2.01484433 60.8998914,2.1705312 60.7857756,2.28501846 C60.6716597,2.39950572 60.5164776,2.46319125 60.3550995,2.46176471 L53.7589138,2.46176471 C53.5975357,2.46033816 53.4423536,2.52402369 53.3282377,2.63851095 C53.2141219,2.75299822 53.1506428,2.90868509 53.1520647,3.07058824 L53.1547032,3.07852941 Z" id="Shape"></path>
                        <path d="M76.2993997,0.643235294 L76.2993997,13.7964706 C76.3008215,13.9583737 76.2373425,14.1140606 76.1232266,14.2285479 C76.0091108,14.3430351 75.8539286,14.4067207 75.6925506,14.4052941 L74.1675124,14.4052941 C74.0061344,14.4067207 73.8509522,14.3430351 73.7368364,14.2285479 C73.6227205,14.1140606 73.5592415,13.9583737 73.5606633,13.7964706 L73.5606633,9.29647059 C73.5620852,9.13456744 73.4986062,8.97888057 73.3844903,8.86439329 C73.2703745,8.74990604 73.1151923,8.68622051 72.9538143,8.68764706 L67.1043167,8.68764706 C66.9429387,8.68622051 66.7877566,8.74990604 66.6736407,8.86439329 C66.5595248,8.97888057 66.4960458,9.13456744 66.4974677,9.29647059 L66.4974677,13.7964706 C66.4988895,13.9583737 66.4354105,14.1140606 66.3212946,14.2285479 C66.2071788,14.3430351 66.0519966,14.4067207 65.8906186,14.4052941 L64.3655804,14.4052941 C64.2042024,14.4067207 64.0490202,14.3430351 63.9349044,14.2285479 C63.8207885,14.1140606 63.7573095,13.9583737 63.7587313,13.7964706 L63.7587313,0.643235294 C63.7573095,0.481332145 63.8207885,0.325645269 63.9349044,0.211158011 C64.0490202,0.0966707526 64.2042024,0.0329852218 64.3655804,0.0344117647 L65.8906186,0.0344117647 C66.0519966,0.0329852218 66.2071788,0.0966707526 66.3212946,0.211158011 C66.4354105,0.325645269 66.4988895,0.481332145 66.4974677,0.643235294 L66.4974677,5.64882353 C66.4960458,5.81072667 66.5595248,5.96641354 66.6736407,6.08090082 C66.7877566,6.19538808 66.9429387,6.25907361 67.1043167,6.25764706 L72.9538143,6.25764706 C73.1151923,6.25907361 73.2703745,6.19538808 73.3844903,6.08090082 C73.4986062,5.96641354 73.5620852,5.81072667 73.5606633,5.64882353 L73.5606633,0.643235294 C73.5592415,0.481332145 73.6227205,0.325645269 73.7368364,0.211158011 C73.8509522,0.0966707526 74.0061344,0.0329852218 74.1675124,0.0344117647 L75.6925506,0.0344117647 C75.8539286,0.0329852218 76.0091108,0.0966707526 76.1232266,0.211158011 C76.2373425,0.325645269 76.3008215,0.481332145 76.2993997,0.643235294 Z" id="Shape"></path>
                        <path d="M83.0486169,14.2279412 C82.3245924,13.9638446 81.664554,13.5488507 81.1119768,13.0102941 C80.5598217,12.4807132 80.1325408,11.834089 79.86134,11.1176471 C79.5573186,10.3185058 79.4069134,9.46882628 79.4180763,8.61352941 L79.4180763,0.672352941 C79.4151397,0.510219691 79.4791134,0.354075419 79.5948541,0.240882353 C79.7018112,0.127355964 79.8507497,0.0631806377 80.0064561,0.0635294118 L81.552602,0.0635294118 C81.71398,0.0621028689 81.8691622,0.1257884 81.983278,0.240275658 C82.0973939,0.354762916 82.160873,0.510449792 82.1594511,0.672352941 L82.1594511,8.61352941 C82.1373457,9.22831142 82.2574562,9.83987704 82.5103682,10.4002941 C82.7241054,10.8199541 83.0181811,11.1932423 83.3757877,11.4988235 C83.7021129,11.7677297 84.0829983,11.9619538 84.4918624,12.0679412 C84.7011812,12.1208824 84.8937899,12.1605882 85.0696882,12.1870588 C85.2347084,12.2126146 85.4013875,12.2258861 85.5683599,12.2267647 C85.9250966,12.2170124 86.2793983,12.1645829 86.6237496,12.0705882 C87.0364787,11.9750606 87.4196435,11.7796742 87.7398242,11.5014706 C88.1137472,11.1994517 88.4149689,10.816723 88.6210746,10.3817647 C88.8739866,9.82134762 88.9940971,9.20978201 88.9719917,8.595 L88.9719917,0.653823529 C88.9705698,0.49192038 89.0340489,0.336233504 89.1481647,0.221746246 C89.2622806,0.107258988 89.4174627,0.0435734571 89.5788408,0.045 L91.1038789,0.045 C91.265257,0.0435734571 91.4204391,0.107258988 91.534555,0.221746246 C91.6486708,0.336233504 91.7121499,0.49192038 91.710728,0.653823529 L91.710728,8.595 C91.7121747,9.03231289 91.6759812,9.46893446 91.6025506,9.9 C91.5382359,10.3150226 91.4339682,10.7228123 91.2912106,11.1176471 C91.0166829,11.8310195 90.5970476,12.4791984 90.0590431,13.0208824 C89.5020733,13.5537969 88.8432814,13.9680071 88.122403,14.2385294 C87.3083957,14.5386586 86.4460241,14.6849489 85.5789138,14.67 C84.715263,14.6837767 83.8567877,14.5337956 83.0486169,14.2279412 Z" id="Shape"></path>
                        <path d="M105.159032,4.96323529 C105.039662,5.28216303 104.881947,5.58528554 104.689383,5.86588235 C104.490869,6.14391062 104.237637,6.37814666 103.945333,6.55411765 C103.805077,6.65080788 103.653559,6.72992468 103.494154,6.78970588 C103.36399,6.82852942 103.305063,6.85764707 103.317376,6.87705882 C103.389315,6.92107346 103.46905,6.95073431 103.552201,6.96441176 C103.728099,7.02970589 103.897841,7.09499999 104.061426,7.16029412 C104.411736,7.33962542 104.723665,7.58602363 104.979615,7.88558824 C105.268179,8.18862443 105.500492,8.54091736 105.665619,8.92588235 C105.840271,9.31440179 105.930226,9.73585556 105.929466,10.1620588 C105.946535,10.8511858 105.823546,11.5365822 105.567995,12.1764706 C105.360601,12.6891273 105.031872,13.1433943 104.610229,13.5 C104.205262,13.8476461 103.721478,14.0903251 103.201284,14.2067647 C102.926882,14.2720588 102.646325,14.3241176 102.35961,14.3629412 C102.061361,14.4027375 101.760764,14.4221939 101.459891,14.4211765 L95.4547231,14.4211765 C95.293345,14.422603 95.1381629,14.3589175 95.024047,14.2444302 C94.9099311,14.129943 94.8464521,13.9742561 94.847874,13.8123529 L94.847874,0.643235294 C94.8464521,0.481332145 94.9099311,0.325645269 95.024047,0.211158011 C95.1381629,0.0966707526 95.293345,0.0329852218 95.4547231,0.0344117647 L101.148551,0.0344117647 C101.449337,0.0344117647 101.729894,0.0476470588 101.990224,0.0741176471 C102.250553,0.100588235 102.514401,0.140294118 102.781766,0.193235294 C103.262471,0.301534203 103.713116,0.515835061 104.101003,0.820588235 C104.514013,1.13102453 104.829867,1.55353371 105.011277,2.03823529 C105.259307,2.66845616 105.37257,3.34393266 105.343725,4.02088235 C105.337131,4.34337221 105.274633,4.66224927 105.159032,4.96323529 Z M98.1934594,5.88705882 L100.953303,5.88705882 C101.203194,5.89299017 101.450934,5.83947124 101.676245,5.73088235 C101.871952,5.62901021 102.045151,5.48855918 102.185471,5.31794118 C102.325591,5.14331587 102.432066,4.94403541 102.499449,4.73029412 C102.56869,4.52130247 102.601709,4.30194957 102.597073,4.08176471 C102.596892,3.87305137 102.556578,3.66633296 102.478342,3.47294118 C102.407771,3.28379374 102.301122,3.11026296 102.164363,2.96205882 C102.033536,2.82143925 101.881239,2.70260052 101.713184,2.61 C101.538534,2.51726927 101.343498,2.46994442 101.145912,2.47235294 L98.1908209,2.47235294 C98.0294428,2.4709264 97.8742607,2.53461193 97.7601448,2.64909918 C97.646029,2.76358646 97.5825499,2.91927333 97.5839718,3.08117647 L97.5839718,5.27823529 C97.5825499,5.44013844 97.646029,5.59582531 97.7601448,5.71031259 C97.8742607,5.82479984 98.0294428,5.88848538 98.1908209,5.88705882 L98.1934594,5.88705882 Z M102.124786,11.7952941 C102.33954,11.6880744 102.5272,11.5332947 102.673589,11.3426471 C102.835991,11.158989 102.962227,10.9461149 103.045614,10.7152941 C103.141259,10.4988026 103.188106,10.2638034 103.182814,10.0270588 C103.187054,9.56445271 102.995227,9.12181474 102.655119,8.80941176 C102.24318,8.4569791 101.709675,8.28110049 101.169658,8.31970588 L98.1934594,8.31970588 C98.0320813,8.31827933 97.8768992,8.38196486 97.7627833,8.49645212 C97.6486675,8.6109394 97.5851884,8.76662627 97.5866103,8.92852941 L97.5866103,11.3611765 C97.5851884,11.5230796 97.6486675,11.6787665 97.7627833,11.7932538 C97.8768992,11.907741 98.0320813,11.9714266 98.1934594,11.97 L101.459891,11.97 C101.693572,11.9734295 101.923659,11.9120565 102.124786,11.7926471 L102.124786,11.7952941 Z" id="Shape"></path>
                    </g>
                </g>
            </g>
        </g>
    </g>
</svg>