<?xml version="1.0" encoding="UTF-8"?>
<svg width="179px" height="34px" viewBox="0 0 179 34" version="1.1" xmlns="http://www.w3.org/2000/svg" xmlns:xlink="http://www.w3.org/1999/xlink">
    <!-- Generator: Sketch 48.2 (47327) - http://www.bohemiancoding.com/sketch -->
    <title>logo1 copy 5</title>
    <desc>Created with Sketch.</desc>
    <defs>
        <linearGradient x1="50.0045056%" y1="40.019589%" x2="50.0045056%" y2="0.00537956711%" id="linearGradient-1">
            <stop stop-color="#F2827F" offset="0%"></stop>
            <stop stop-color="#FF8278" offset="100%"></stop>
        </linearGradient>
    </defs>
    <g id="Search-result-Copy-2" stroke="none" stroke-width="1" fill="none" fill-rule="evenodd" transform="translate(-16.000000, -44.000000)">
        <g id="logo1-copy-5" transform="translate(16.000000, 44.000000)">
            <g id="Layer0_0_FILL" fill="#0078FF" fill-rule="nonzero">
                <path d="M35.3368421,11.8212963 L41.9526316,8.59444444 L34.8,10.4203704 C33.9383179,8.48326501 32.7168442,6.7261401 31.2,5.24166667 C28.0840881,2.03122992 23.775278,0.248079998 19.2947368,0.314814815 L3.3,0.314814815 C3.11998153,0.325431809 2.94073282,0.346454806 2.76315789,0.377777778 C2.74865016,0.386277652 2.73251138,0.391640642 2.71578947,0.393518519 C2.21186193,0.497705225 1.74385868,0.730984624 1.35789474,1.07037037 C1.24257701,1.17055469 1.13685834,1.28121668 1.04210526,1.40092593 C0.56596368,1.94569 0.307446418,2.64601437 0.315789474,3.36851852 L0.315789474,19.9592593 L35.0526316,11.0657407 L34.8789474,11.1601852 L34.8,11.1916667 L0.315789474,27.9712963 L0.315789474,30.8675926 C0.30124917,31.5931 0.554044791,32.2987429 1.02631579,32.8509259 C1.12181235,32.9651688 1.22750872,33.0705389 1.34210526,33.1657407 C1.7280692,33.5051265 2.19607246,33.7384059 2.7,33.8425926 C2.71672191,33.8444705 2.73286068,33.8498333 2.74736842,33.8583333 C2.92494438,33.8896492 3.10419268,33.9106722 3.28421053,33.9212963 L19.2947368,33.9212963 C23.7759311,33.9914339 28.0860442,32.2077448 31.2,28.9944444 C34.4203762,25.8881495 36.2090466,21.5926382 36.1421053,17.1259259 C36.1557947,15.326458 35.8840187,13.5361473 35.3368421,11.8212963 Z" id="Shape"></path>
            </g>
            <g id="Group" transform="translate(50.000000, 9.000000)" fill="#FFFFFF" fill-rule="nonzero">
                <path d="M0.962686567,17.4889286 C0.769664721,17.4936737 0.583882829,17.4152582 0.452462687,17.2735714 C0.318280533,17.1327542 0.245543508,16.944249 0.250298507,16.7496429 L0.250298507,0.781071429 C0.245896971,0.586527072 0.318583566,0.398152533 0.452462687,0.257142857 C0.583882829,0.115456053 0.769664721,0.0370405588 0.962686567,0.0417857143 L7.10141791,0.0417857143 C9.59156716,0.0417857143 11.637811,0.772499999 13.2401493,2.23392857 C14.0857092,3.01379 14.7439643,3.97534005 15.1655224,5.04642857 C15.6153706,6.23414996 15.841676,7.49506481 15.8329851,8.76535714 C15.8362391,9.42475179 15.7803931,10.083108 15.6661194,10.7325 C15.5581667,11.3317296 15.3904611,11.9185976 15.1655224,12.4842857 C14.7599987,13.5702755 14.0996331,14.5426253 13.2401493,15.3192857 C12.4460989,16.0355467 11.51477,16.5823673 10.5029104,16.9264286 C9.40807718,17.3002297 8.25806163,17.4860592 7.10141791,17.4760714 L0.962686567,17.4889286 Z M4.29358209,14.5317857 L7.1238806,14.5317857 C7.75661263,14.5280831 8.38709112,14.4558779 9.00432836,14.3164286 C9.63425638,14.1673895 10.2209201,13.8735704 10.7179104,13.4582143 C11.2784829,12.9897654 11.7186639,12.3934316 12.0014925,11.7192857 C12.3715866,10.7880745 12.5421393,9.78934101 12.5020896,8.78785714 C12.5370836,7.77938879 12.3667597,6.77433983 12.0014925,5.83392857 C11.7186639,5.15978267 11.2784829,4.56344891 10.7179104,4.095 C10.2096434,3.68871094 9.61611766,3.4029937 8.98186567,3.25928571 C8.373157,3.1207844 7.75128805,3.0485795 7.12708955,3.04392857 L4.29679104,3.04392857 C4.10376921,3.03918341 3.91798729,3.11759891 3.78656716,3.25928571 C3.65268804,3.4002954 3.58000145,3.58866993 3.58440299,3.78321429 L3.58440299,13.7957143 C3.58000145,13.9902586 3.65268804,14.1786332 3.78656716,14.3196429 C3.91421876,14.4571535 4.09328581,14.5351887 4.28074627,14.535 L4.29358209,14.5317857 Z" id="Shape"></path>
                <path d="M21.5545522,17.4889286 L19.6741045,17.4889286 C19.4778338,17.4906608 19.289099,17.4133284 19.1503093,17.2743081 C19.0115196,17.1352879 18.9343154,16.9462395 18.9360448,16.7496429 L18.9360448,0.781071429 C18.9343154,0.584474747 19.0115196,0.395426398 19.1503093,0.256406156 C19.289099,0.117385914 19.4778338,0.0400534836 19.6741045,0.0417857143 L26.8589552,0.0417857143 C27.6954651,0.0320109417 28.5265946,0.176937437 29.310597,0.469285714 C30.0071557,0.765558309 30.6442851,1.18593459 31.1910448,1.71 C31.4583462,1.97804042 31.6970931,2.27319949 31.9034328,2.59071429 C32.1119751,2.91389087 32.2872268,3.25743763 32.4264925,3.61607143 C32.7165969,4.39292687 32.8612771,5.21668578 32.8532836,6.04607143 C32.8930733,7.2694106 32.5570466,8.47550684 31.890597,9.50142857 C31.3903906,10.2580438 30.7128225,10.8804555 29.9170896,11.3142857 C29.7610046,11.3954412 29.6450041,11.5371968 29.596194,11.7064286 C29.5494442,11.8789037 29.5942663,12.0633434 29.7149254,12.195 C30.3010945,12.99 30.8605224,13.74 31.393209,14.445 C31.9258955,15.15 32.4767663,15.9 33.0458209,16.695 C33.1664638,16.8408704 33.2062144,17.0375413 33.1517164,17.2189286 C33.1027426,17.3905817 32.9373974,17.5019 32.7602239,17.4825 L30.3567164,17.4825 C30.1326726,17.4778822 29.9128419,17.4206312 29.7149254,17.3153571 C29.5131462,17.2202234 29.3346117,17.081986 29.1918657,16.9103571 L28.3960448,15.8271429 L27.6002239,14.7439286 L25.9925373,12.5357143 C25.8550748,12.3531236 25.6756393,12.2064699 25.4694776,12.1082143 C25.2714741,12.0031641 25.0516974,11.9459272 24.8276866,11.9410714 L23.008209,11.9410714 C22.8119383,11.9393392 22.6232035,12.0166716 22.4844138,12.1556919 C22.3456241,12.2947121 22.2684199,12.4837605 22.2701493,12.6803571 L22.2701493,16.7528571 C22.2745508,16.9474015 22.2018642,17.135776 22.0679851,17.2767857 C21.935243,17.4181408 21.7481843,17.4954307 21.5545522,17.4889286 Z M23.005,8.98071429 L26.8557463,8.98071429 C27.1738178,8.97452476 27.4880931,8.9102582 27.7831343,8.79107143 C28.1130934,8.675036 28.4133482,8.48733946 28.6623881,8.24142857 C28.9186825,7.9766747 29.1281163,7.67015431 29.2817164,7.335 C29.4541133,6.92907859 29.535186,6.49011973 29.5191791,6.04928571 C29.516797,5.74471434 29.4845526,5.4411138 29.4229104,5.14285714 C29.3913054,4.96858892 29.3440487,4.79753669 29.2817164,4.63178571 C29.2175373,4.46464286 29.1458707,4.3017857 29.0667164,4.14321429 C28.8642047,3.81351234 28.5872149,3.53606239 28.2580597,3.33321429 C27.828845,3.09941716 27.3437546,2.98822809 26.8557463,3.01178571 L23.005,3.01178571 C22.8087294,3.01005348 22.6199945,3.08738591 22.4812048,3.22640614 C22.3424151,3.36542641 22.2652109,3.55447475 22.2669403,3.75107143 L22.2669403,8.25107143 C22.2652109,8.4476681 22.3424151,8.63671645 22.4812048,8.77573671 C22.6199945,8.91475695 22.8087294,8.99208939 23.005,8.99035714 L23.005,8.98071429 Z" id="Shape"></path>
                <path d="M39.1492537,17.4889286 L37.268806,17.4889286 C37.0757841,17.4936737 36.8900023,17.4152582 36.7585821,17.2735714 C36.6243999,17.1327542 36.5516629,16.944249 36.5564179,16.7496429 L36.5564179,0.806785714 C36.5520165,0.612241358 36.6247029,0.423866819 36.7585821,0.282857143 C36.8900023,0.141170339 37.0757841,0.0627548445 37.268806,0.0675 L39.1492537,0.0675 C39.3455243,0.0657677694 39.5342594,0.1431002 39.6730489,0.282120441 C39.8118385,0.421140684 39.8890427,0.610189033 39.8873134,0.806785714 L39.8873134,16.7528571 C39.8890427,16.9494538 39.8118385,17.1385022 39.6730489,17.2775224 C39.5342594,17.4165427 39.3455243,17.4938751 39.1492537,17.4921429 L39.1492537,17.4889286 Z" id="Shape"></path>
                <path d="M58.9613433,0.736071429 L51.3432836,17.1803571 C51.2510319,17.3436937 51.0781729,17.444673 50.8908209,17.444673 C50.7034689,17.444673 50.5306099,17.3436937 50.4383582,17.1803571 L42.8523881,0.736071429 C42.772514,0.587591839 42.772514,0.408836732 42.8523881,0.260357143 C42.9427064,0.128196728 43.0975391,0.055575252 43.2567164,0.0707142857 L45.4708955,0.0707142857 C45.6910023,0.0745406145 45.9056043,0.140253376 46.0902239,0.260357143 C46.2841253,0.367319681 46.4383288,0.534181101 46.5298507,0.736071429 L50.598806,9.50785714 C50.6779603,9.68357144 50.7849254,9.77142857 50.9197015,9.77142857 C51.0544776,9.77142857 51.1614427,9.68357144 51.240597,9.50785714 L55.3095522,0.736071429 C55.3973493,0.535852093 55.5469386,0.369115226 55.7363433,0.260357143 C55.920889,0.140094774 56.1355376,0.0743677473 56.3556716,0.0707142857 L58.5698507,0.0707142857 C58.7357736,0.0526844874 58.8986284,0.125048302 58.9966418,0.260357143 C59.0657537,0.41473846 59.0524805,0.593620319 58.9613433,0.736071429 Z" id="Shape"></path>
                <path d="M64.6476119,3.73821429 L64.6476119,6.63107143 C64.6458826,6.8276681 64.7230869,7.01671645 64.8618764,7.15573671 C65.000666,7.29475695 65.189401,7.37208939 65.3856716,7.37035714 L72.3330597,7.37035714 C72.5293303,7.3686249 72.7180653,7.44595734 72.8568549,7.58497757 C72.9956445,7.72399784 73.0728487,7.91304618 73.0711194,8.10964286 L73.0711194,9.64285714 C73.0728487,9.83945382 72.9956445,10.0285022 72.8568549,10.1675224 C72.7180653,10.3065427 72.5293303,10.3838751 72.3330597,10.3821429 L65.3856716,10.3821429 C65.189401,10.3804106 65.000666,10.4577431 64.8618764,10.5967633 C64.7230869,10.7357836 64.6458826,10.9248319 64.6476119,11.1214286 L64.6476119,13.7442857 C64.6458826,13.9408824 64.7230869,14.1299307 64.8618764,14.268951 C65.000666,14.4079712 65.189401,14.4853037 65.3856716,14.4835714 L73.4080597,14.4835714 C73.6043303,14.4818392 73.7930653,14.5591716 73.9318549,14.6981919 C74.0706445,14.8372121 74.1478487,15.0262605 74.1461194,15.2228571 L74.1461194,16.7496429 C74.1478487,16.9462395 74.0706445,17.1352879 73.9318549,17.2743081 C73.7930653,17.4133284 73.6043303,17.4906608 73.4080597,17.4889286 L62.0547761,17.4889286 C61.8585055,17.4906608 61.6697705,17.4133284 61.5309809,17.2743081 C61.3921914,17.1352879 61.3149871,16.9462395 61.3167164,16.7496429 L61.3167164,0.781071429 C61.3149871,0.584474747 61.3921914,0.395426398 61.5309809,0.256406156 C61.6697705,0.117385914 61.8585055,0.0400534836 62.0547761,0.0417857143 L73.4048507,0.0417857143 C73.6011214,0.0400534836 73.7898564,0.117385914 73.9286459,0.256406156 C74.0674355,0.395426398 74.1446398,0.584474747 74.1429104,0.781071429 L74.1429104,2.25 C74.1446398,2.44659668 74.0674355,2.63564503 73.9286459,2.77466527 C73.7898564,2.91368552 73.6011214,2.99101794 73.4048507,2.98928571 L65.3824627,2.98928571 C65.1861921,2.98755348 64.9974571,3.06488591 64.8586675,3.20390616 C64.7198779,3.34292641 64.6426737,3.53197475 64.644403,3.72857143 L64.6476119,3.73821429 Z" id="Shape"></path>
                <path d="M92.7965672,0.781071429 L92.7965672,16.7528571 C92.7982965,16.9494538 92.7210922,17.1385022 92.5823027,17.2775224 C92.4435131,17.4165427 92.2547781,17.4938751 92.0585075,17.4921429 L90.2037313,17.4921429 C90.0074607,17.4938751 89.8187257,17.4165427 89.6799361,17.2775224 C89.5411466,17.1385022 89.4639423,16.9494538 89.4656716,16.7528571 L89.4656716,11.2885714 C89.4674009,11.0919748 89.3901967,10.9029264 89.2514071,10.7639061 C89.1126176,10.6248859 88.9238826,10.5475535 88.7276119,10.5492857 L81.6133582,10.5492857 C81.4170876,10.5475535 81.2283526,10.6248859 81.089563,10.7639061 C80.9507735,10.9029264 80.8735692,11.0919748 80.8752985,11.2885714 L80.8752985,16.7528571 C80.8770278,16.9494538 80.7998236,17.1385022 80.661034,17.2775224 C80.5222444,17.4165427 80.3335094,17.4938751 80.1372388,17.4921429 L78.2824627,17.4921429 C78.0861921,17.4938751 77.8974571,17.4165427 77.7586675,17.2775224 C77.6198779,17.1385022 77.5426737,16.9494538 77.544403,16.7528571 L77.544403,0.781071429 C77.5426737,0.584474747 77.6198779,0.395426398 77.7586675,0.256406156 C77.8974571,0.117385914 78.0861921,0.0400534836 78.2824627,0.0417857143 L80.1372388,0.0417857143 C80.3335094,0.0400534836 80.5222444,0.117385914 80.661034,0.256406156 C80.7998236,0.395426398 80.8770278,0.584474747 80.8752985,0.781071429 L80.8752985,6.85928571 C80.8735692,7.05588239 80.9507735,7.24493073 81.089563,7.383951 C81.2283526,7.52297124 81.4170876,7.60030367 81.6133582,7.59857143 L88.7276119,7.59857143 C88.9238826,7.60030367 89.1126176,7.52297124 89.2514071,7.383951 C89.3901967,7.24493073 89.4674009,7.05588239 89.4656716,6.85928571 L89.4656716,0.781071429 C89.4639423,0.584474747 89.5411466,0.395426398 89.6799361,0.256406156 C89.8187257,0.117385914 90.0074607,0.0400534836 90.2037313,0.0417857143 L92.0585075,0.0417857143 C92.2547781,0.0400534836 92.4435131,0.117385914 92.5823027,0.256406156 C92.7210922,0.395426398 92.7982965,0.584474747 92.7965672,0.781071429 Z" id="Shape"></path>
                <path d="M101.005075,17.2767857 C100.124504,16.956097 99.3217549,16.4521759 98.6497015,15.7982143 C97.9781615,15.1551517 97.4584956,14.3699653 97.1286567,13.5 C96.758901,12.5296141 96.5759758,11.4978605 96.5895522,10.4592857 L96.5895522,0.816428571 C96.5859807,0.619552482 96.6637866,0.429948723 96.8045522,0.2925 C96.9346353,0.154646528 97.1157766,0.0767193457 97.3051493,0.0771428571 L99.185597,0.0771428571 C99.3818676,0.0754106265 99.5706026,0.152743057 99.7093922,0.291763299 C99.8481818,0.430783541 99.925386,0.61983189 99.9236567,0.816428571 L99.9236567,10.4592857 C99.8967718,11.2058067 100.042852,11.9484221 100.350448,12.6289286 C100.610398,13.1385157 100.968058,13.5917942 101.402985,13.9628571 C101.799867,14.289386 102.263106,14.5252296 102.760373,14.6539286 C103.01495,14.7182143 103.249204,14.7664286 103.463134,14.7985714 C103.663835,14.8296035 103.866552,14.8457189 104.069627,14.8467857 C104.503496,14.8349437 104.934403,14.7712792 105.353209,14.6571429 C105.855177,14.541145 106.321188,14.3038901 106.710597,13.9660714 C107.165368,13.5993342 107.531719,13.1345922 107.782388,12.6064286 C108.089984,11.9259221 108.236064,11.1833067 108.209179,10.4367857 L108.209179,0.793928571 C108.20745,0.59733189 108.284654,0.408283541 108.423444,0.269263299 C108.562233,0.130243057 108.750968,0.0529106265 108.947239,0.0546428571 L110.802015,0.0546428571 C110.998286,0.0529106265 111.187021,0.130243057 111.32581,0.269263299 C111.4646,0.408283541 111.541804,0.59733189 111.540075,0.793928571 L111.540075,10.4367857 C111.541834,10.9678085 111.497815,11.4979919 111.408507,12.0214286 C111.330287,12.5253845 111.203475,13.0205578 111.029851,13.5 C110.695966,14.3662379 110.185598,15.1533124 109.531269,15.8110714 C108.853873,16.4581819 108.05264,16.9611515 107.175896,17.2896429 C106.185887,17.6540854 105.137056,17.8317237 104.082463,17.8135714 C103.032077,17.8303002 101.987985,17.6481804 101.005075,17.2767857 Z" id="Shape"></path>
                <path d="M127.896119,6.02678571 C127.75094,6.4140551 127.559124,6.78213244 127.324925,7.12285714 C127.08349,7.46046289 126.775505,7.74489237 126.42,7.95857143 C126.249417,8.07598099 126.065139,8.1720514 125.871269,8.24464286 C125.71296,8.29178573 125.641293,8.32714287 125.656269,8.35071429 C125.743761,8.40416063 125.840736,8.44017737 125.941866,8.45678571 C126.155796,8.53607144 126.362239,8.61535713 126.561194,8.69464286 C126.987246,8.91240229 127.366619,9.21160013 127.67791,9.57535714 C128.028866,9.94332966 128.311409,10.3711139 128.512239,10.8385714 C128.724654,11.310345 128.834059,11.8221103 128.833134,12.3396429 C128.853894,13.1764398 128.704313,14.008707 128.393507,14.7857143 C128.141271,15.408226 127.741466,15.9598359 127.228657,16.3928571 C126.73613,16.8149988 126.147744,17.1096805 125.515075,17.2510714 C125.181343,17.3303572 124.840124,17.3935714 124.491418,17.4407143 C124.128682,17.4890384 123.763092,17.5126641 123.397164,17.5114286 L116.093582,17.5114286 C115.897311,17.5131608 115.708576,17.4358284 115.569787,17.2968081 C115.430997,17.1577879 115.353793,16.9687395 115.355522,16.7721429 L115.355522,0.781071429 C115.353793,0.584474747 115.430997,0.395426398 115.569787,0.256406156 C115.708576,0.117385914 115.897311,0.0400534836 116.093582,0.0417857143 L123.018507,0.0417857143 C123.384328,0.0417857143 123.725547,0.0578571429 124.042164,0.09 C124.358781,0.122142857 124.679677,0.170357143 125.004851,0.234642857 C125.589492,0.366148675 126.137573,0.626371145 126.609328,0.996428571 C127.111638,1.37338693 127.495785,1.88643379 127.716418,2.475 C128.018076,3.2402682 128.155829,4.06048966 128.120746,4.8825 C128.112726,5.27409482 128.036716,5.66130269 127.896119,6.02678571 Z M119.424478,7.14857143 L122.781045,7.14857143 C123.084966,7.15577378 123.386271,7.09078651 123.660299,6.95892857 C123.89832,6.83522669 124.108968,6.664679 124.279627,6.4575 C124.450043,6.24545499 124.579539,6.00347157 124.661493,5.74392857 C124.745704,5.490153 124.785863,5.22379591 124.780224,4.95642857 C124.780004,4.70299095 124.730974,4.45197574 124.635821,4.21714286 C124.549992,3.98746382 124.420284,3.77674788 124.253955,3.59678571 C124.094841,3.42603338 123.909614,3.28172921 123.705224,3.16928571 C123.492811,3.05668411 123.255606,2.99921823 123.015299,3.00214286 L119.421269,3.00214286 C119.224998,3.00041063 119.036263,3.07774306 118.897473,3.21676329 C118.758684,3.35578355 118.68148,3.5448319 118.683209,3.74142857 L118.683209,6.40928571 C118.68148,6.60588239 118.758684,6.79493073 118.897473,6.933951 C119.036263,7.07297124 119.224998,7.15030367 119.421269,7.14857143 L119.424478,7.14857143 Z M124.205821,14.3228571 C124.467008,14.1926617 124.695243,14.0047151 124.873284,13.7732143 C125.0708,13.5502009 125.22433,13.2917109 125.325746,13.0114286 C125.442071,12.748546 125.499048,12.4631898 125.492612,12.1757143 C125.497768,11.6139783 125.264465,11.0764893 124.850821,10.6971429 C124.349814,10.2691889 123.700956,10.055622 123.044179,10.1025 L119.424478,10.1025 C119.228207,10.1007678 119.039472,10.1781002 118.900682,10.3171204 C118.761893,10.4561407 118.684689,10.645189 118.686418,10.8417857 L118.686418,13.7957143 C118.684689,13.992311 118.761893,14.1813593 118.900682,14.3203796 C119.039472,14.4593998 119.228207,14.5367322 119.424478,14.535 L123.397164,14.535 C123.681371,14.5391644 123.961206,14.4646401 124.205821,14.3196429 L124.205821,14.3228571 Z" id="Shape"></path>
            </g>
            <rect id="Rectangle-path" x="47" y="8" width="133" height="26"></rect>
        </g>
    </g>
</svg>