<?xml version="1.0" encoding="UTF-8"?>
<svg width="556px" height="107px" viewBox="0 0 556 107" version="1.1" xmlns="http://www.w3.org/2000/svg" xmlns:xlink="http://www.w3.org/1999/xlink">
    <!-- Generator: Sketch 42 (36781) - http://www.bohemiancoding.com/sketch -->
    <title>logo</title>
    <desc>Created with Sketch.</desc>
    <defs>
        <linearGradient x1="50.0045056%" y1="40.019589%" x2="50.0045056%" y2="0.00537956711%" id="linearGradient-1">
            <stop stop-color="#F2827F" offset="0%"></stop>
            <stop stop-color="#FF8278" offset="100%"></stop>
        </linearGradient>
    </defs>
    <g id="Page-1" stroke="none" stroke-width="1" fill="none" fill-rule="evenodd">
        <g id="logo1" transform="translate(-1.000000, -1.000000)">
            <g id="Page-1">
                <g id="logo">
                    <g id="Layer0_0_FILL" fill-rule="nonzero" fill="#FFFFFF">
                        <path d="M111.9,37.55 L132.85,27.3 L110.2,33.1 C107.47134,26.9468418 103.60334,21.3653862 98.8,16.65 C88.9329456,6.45214211 75.2883802,0.788018818 61.1,1 L10.45,1 C9.87994152,1.03372457 9.3123206,1.1005035 8.75,1.2 C8.70405883,1.2269996 8.6529527,1.24403498 8.6,1.25 C7.00422945,1.58094601 5.52221914,2.32195116 4.3,3.4 C3.93482719,3.71823253 3.60005141,4.0697471 3.3,4.45 C1.79221832,6.18042707 0.973580324,8.40498683 1,10.7 L1,63.4 L111,35.15 L110.45,35.45 L110.2,35.55 L1,88.85 L1,98.05 C0.953955706,100.354553 1.75447517,102.596007 3.25,104.35 C3.55240577,104.712889 3.88711094,105.047594 4.25,105.35 C5.47221914,106.428049 6.95422945,107.169054 8.55,107.5 C8.6029527,107.505965 8.65405883,107.523 8.7,107.55 C9.26232387,107.649474 9.8299435,107.716253 10.4,107.75 L61.1,107.75 C75.2904486,107.97279 88.9391399,102.306954 98.8,92.1 C108.997858,82.2329456 114.661981,68.5883802 114.45,54.4 C114.49335,48.6840432 113.632726,42.9971737 111.9,37.55 Z" id="Shape"></path>
                    </g>
                    <g id="Group" transform="translate(155.000000, 29.000000)" fill-rule="nonzero" fill="#FFFFFF">
                        <path d="M3,54.41 C2.39849006,54.4247627 1.81954184,54.1808034 1.41,53.74 C0.991850963,53.3019019 0.765182096,52.7154412 0.78,52.11 L0.78,2.43 C0.766283585,1.82475089 0.992795299,1.23869677 1.41,0.8 C1.81954184,0.359196609 2.39849006,0.115237294 3,0.13 L22.13,0.13 C29.89,0.13 36.2666667,2.40333333 41.26,6.95 C43.8950007,9.37623554 45.9463075,12.3677246 47.26,15.7 C48.6618526,19.3951332 49.3670834,23.3179794 49.34,27.27 C49.3501405,29.32145 49.1761088,31.3696693 48.82,33.39 C48.4835893,35.25427 47.9609717,37.0800815 47.26,38.84 C45.9962749,42.2186348 43.9383916,45.2437233 41.26,47.66 C38.7855175,49.8883674 35.8832367,51.5895871 32.73,52.66 C29.318194,53.8229368 25.7344246,54.4010732 22.13,54.37 L3,54.41 Z M13.38,45.21 L22.2,45.21 C24.1717696,45.1984808 26.1365165,44.9738425 28.06,44.54 C30.0230315,44.0763229 31.8512395,43.162219 33.4,41.87 C35.1469002,40.4126034 36.5186271,38.5573428 37.4,36.46 C38.5533163,33.5628986 39.0848061,30.4557276 38.96,27.34 C39.0690512,24.2025429 38.5382745,21.0757239 37.4,18.15 C36.5186271,16.0526572 35.1469002,14.1973966 33.4,12.74 C31.8160981,11.4759896 29.9665062,10.5870915 27.99,10.14 C26.0930939,9.70910702 24.1551767,9.48446956 22.21,9.47 L13.39,9.47 C12.7884901,9.45523729 12.2095418,9.69919661 11.8,10.14 C11.3827953,10.5786968 11.1562836,11.1647509 11.17,11.77 L11.17,42.92 C11.1562836,43.5252491 11.3827953,44.1113032 11.8,44.55 C12.197798,44.977811 12.7558209,45.2205872 13.34,45.22 L13.38,45.21 Z" id="Shape"></path>
                        <path d="M67.17,54.41 L61.31,54.41 C60.6983659,54.4153892 60.1102155,54.1747994 59.677708,53.742292 C59.2452006,53.3097845 59.0046108,52.7216341 59.01,52.11 L59.01,2.43 C59.0046108,1.81836588 59.2452006,1.23021546 59.677708,0.79770804 C60.1102155,0.365200621 60.6983659,0.124610838 61.31,0.13 L83.7,0.13 C86.3067983,0.0995895965 88.8968297,0.550472026 91.34,1.46 C93.5106711,2.38173696 95.4961444,3.68957429 97.2,5.32 C98.0329859,6.15390352 98.7769878,7.07217618 99.42,8.06 C100.069876,9.06543827 100.616009,10.1342504 101.05,11.25 C101.954046,13.6668836 102.40491,16.2296891 102.38,18.81 C102.503996,22.6159441 101.456843,26.3682435 99.38,29.56 C97.8212171,31.9139139 95.7097258,33.8503059 93.23,35.2 C92.7435958,35.4524836 92.3821058,35.8935013 92.23,36.42 C92.0843146,36.9565894 92.2239926,37.5304016 92.6,37.94 C94.4266667,40.4133333 96.17,42.7466667 97.83,44.94 C99.49,47.1333333 101.206667,49.4666667 102.98,51.94 C103.355957,52.3938189 103.479831,53.0056841 103.31,53.57 C103.157384,54.104032 102.642122,54.4503556 102.09,54.39 L94.6,54.39 C93.901817,54.3756334 93.2167632,54.1975194 92.6,53.87 C91.9711998,53.5740285 91.4148365,53.1439563 90.97,52.61 L88.49,49.24 L86.01,45.87 L81,39 C80.5716284,38.4319401 80.0124574,37.975684 79.37,37.67 C78.7529658,37.3431771 78.0680804,37.1651069 77.37,37.15 L71.7,37.15 C71.0883659,37.1446108 70.5002155,37.3852006 70.067708,37.817708 C69.6352006,38.2502155 69.3946108,38.8383659 69.4,39.45 L69.4,52.12 C69.4137164,52.7252491 69.1872047,53.3113032 68.77,53.75 C68.3563387,54.1897715 67.7734115,54.4302289 67.17,54.41 Z M71.69,27.94 L83.69,27.94 C84.6811998,27.9207437 85.6605693,27.7208033 86.58,27.35 C87.6082447,26.9890009 88.5439223,26.4050561 89.32,25.64 C90.118685,24.8163213 90.7713391,23.8627023 91.25,22.82 C91.7872368,21.5571334 92.0398821,20.1914836 91.99,18.82 C91.9825767,17.8724446 91.8820942,16.9279096 91.69,16 C91.5915099,15.4578322 91.4442448,14.9256697 91.25,14.41 C91.05,13.89 90.8266667,13.3833333 90.58,12.89 C89.948917,11.8642606 89.0857394,11.001083 88.06,10.37 C86.7224472,9.64263115 85.21077,9.29670961 83.69,9.37 L71.69,9.37 C71.0783659,9.36461084 70.4902155,9.60520062 70.057708,10.037708 C69.6252006,10.4702155 69.3846108,11.0583659 69.39,11.67 L69.39,25.67 C69.3846108,26.2816341 69.6252006,26.8697845 70.057708,27.302292 C70.4902155,27.7347994 71.0783659,27.9753892 71.69,27.97 L71.69,27.94 Z" id="Shape"></path>
                        <path d="M122,54.41 L116.14,54.41 C115.53849,54.4247627 114.959542,54.1808034 114.55,53.74 C114.131851,53.3019019 113.905182,52.7154412 113.92,52.11 L113.92,2.51 C113.906284,1.90475089 114.132795,1.31869677 114.55,0.88 C114.959542,0.439196609 115.53849,0.195237294 116.14,0.21 L122,0.21 C122.611634,0.204610838 123.199785,0.445200621 123.632292,0.87770804 C124.064799,1.31021546 124.305389,1.89836588 124.3,2.51 L124.3,52.12 C124.305389,52.7316341 124.064799,53.3197845 123.632292,53.752292 C123.199785,54.1847994 122.611634,54.4253892 122,54.42 L122,54.41 Z" id="Shape"></path>
                        <path d="M183.74,2.29 L160,53.45 C159.712518,53.9581581 159.173841,54.2723159 158.59,54.2723159 C158.006159,54.2723159 157.467482,53.9581581 157.18,53.45 L133.54,2.29 C133.29109,1.8280635 133.29109,1.2719365 133.54,0.81 C133.821457,0.398834266 134.303959,0.172900784 134.8,0.22 L141.7,0.22 C142.385914,0.231904134 143.054674,0.436343835 143.63,0.81 C144.234251,1.14277234 144.714792,1.66189676 145,2.29 L157.68,29.58 C157.926667,30.1266667 158.26,30.4 158.68,30.4 C159.1,30.4 159.433333,30.1266667 159.68,29.58 L172.36,2.29 C172.6336,1.6670954 173.099762,1.14835848 173.69,0.81 C174.265096,0.435850407 174.934001,0.231366325 175.62,0.22 L182.52,0.22 C183.037062,0.163907294 183.544563,0.389039162 183.85,0.81 C184.065372,1.29029743 184.024009,1.84681877 183.74,2.29 L183.74,2.29 Z" id="Shape"></path>
                        <path d="M201.46,11.63 L201.46,20.63 C201.454611,21.2416341 201.695201,21.8297845 202.127708,22.262292 C202.560215,22.6947994 203.148366,22.9353892 203.76,22.93 L225.41,22.93 C226.021634,22.9246108 226.609785,23.1652006 227.042292,23.597708 C227.474799,24.0302155 227.715389,24.6183659 227.71,25.23 L227.71,30 C227.715389,30.6116341 227.474799,31.1997845 227.042292,31.632292 C226.609785,32.0647994 226.021634,32.3053892 225.41,32.3 L203.76,32.3 C203.148366,32.2946108 202.560215,32.5352006 202.127708,32.967708 C201.695201,33.4002155 201.454611,33.9883659 201.46,34.6 L201.46,42.76 C201.454611,43.3716341 201.695201,43.9597845 202.127708,44.392292 C202.560215,44.8247994 203.148366,45.0653892 203.76,45.06 L228.76,45.06 C229.371634,45.0546108 229.959785,45.2952006 230.392292,45.727708 C230.824799,46.1602155 231.065389,46.7483659 231.06,47.36 L231.06,52.11 C231.065389,52.7216341 230.824799,53.3097845 230.392292,53.742292 C229.959785,54.1747994 229.371634,54.4153892 228.76,54.41 L193.38,54.41 C192.768366,54.4153892 192.180215,54.1747994 191.747708,53.742292 C191.315201,53.3097845 191.074611,52.7216341 191.08,52.11 L191.08,2.43 C191.074611,1.81836588 191.315201,1.23021546 191.747708,0.79770804 C192.180215,0.365200621 192.768366,0.124610838 193.38,0.13 L228.75,0.13 C229.361634,0.124610838 229.949785,0.365200621 230.382292,0.79770804 C230.814799,1.23021546 231.055389,1.81836588 231.05,2.43 L231.05,7 C231.055389,7.61163412 230.814799,8.19978454 230.382292,8.63229196 C229.949785,9.06479938 229.361634,9.30538916 228.75,9.3 L203.75,9.3 C203.138366,9.29461084 202.550215,9.53520062 202.117708,9.96770804 C201.685201,10.4002155 201.444611,10.9883659 201.45,11.6 L201.46,11.63 Z" id="Shape"></path>
                        <path d="M289.18,2.43 L289.18,52.12 C289.185389,52.7316341 288.944799,53.3197845 288.512292,53.752292 C288.079785,54.1847994 287.491634,54.4253892 286.88,54.42 L281.1,54.42 C280.488366,54.4253892 279.900215,54.1847994 279.467708,53.752292 C279.035201,53.3197845 278.794611,52.7316341 278.8,52.12 L278.8,35.12 C278.805389,34.5083659 278.564799,33.9202155 278.132292,33.487708 C277.699785,33.0552006 277.111634,32.8146108 276.5,32.82 L254.33,32.82 C253.718366,32.8146108 253.130215,33.0552006 252.697708,33.487708 C252.265201,33.9202155 252.024611,34.5083659 252.03,35.12 L252.03,52.12 C252.035389,52.7316341 251.794799,53.3197845 251.362292,53.752292 C250.929785,54.1847994 250.341634,54.4253892 249.73,54.42 L243.95,54.42 C243.338366,54.4253892 242.750215,54.1847994 242.317708,53.752292 C241.885201,53.3197845 241.644611,52.7316341 241.65,52.12 L241.65,2.43 C241.644611,1.81836588 241.885201,1.23021546 242.317708,0.79770804 C242.750215,0.365200621 243.338366,0.124610838 243.95,0.13 L249.73,0.13 C250.341634,0.124610838 250.929785,0.365200621 251.362292,0.79770804 C251.794799,1.23021546 252.035389,1.81836588 252.03,2.43 L252.03,21.34 C252.024611,21.9516341 252.265201,22.5397845 252.697708,22.972292 C253.130215,23.4047994 253.718366,23.6453892 254.33,23.64 L276.5,23.64 C277.111634,23.6453892 277.699785,23.4047994 278.132292,22.972292 C278.564799,22.5397845 278.805389,21.9516341 278.8,21.34 L278.8,2.43 C278.794611,1.81836588 279.035201,1.23021546 279.467708,0.79770804 C279.900215,0.365200621 280.488366,0.124610838 281.1,0.13 L286.88,0.13 C287.491634,0.124610838 288.079785,0.365200621 288.512292,0.79770804 C288.944799,1.23021546 289.185389,1.81836588 289.18,2.43 L289.18,2.43 Z" id="Shape"></path>
                        <path d="M314.76,53.75 C312.015897,52.7523019 309.514306,51.1845472 307.42,49.15 C305.327294,47.149361 303.70787,44.7065586 302.68,42 C301.527738,38.9810218 300.957692,35.7711215 301,32.54 L301,2.54 C300.98887,1.92749661 301.231335,1.33761825 301.67,0.91 C302.075375,0.481122531 302.639862,0.238682409 303.23,0.24 L309.09,0.24 C309.701634,0.234610838 310.289785,0.475200621 310.722292,0.90770804 C311.154799,1.34021546 311.395389,1.92836588 311.39,2.54 L311.39,32.54 C311.306219,34.8625098 311.761446,37.1728688 312.72,39.29 C313.530079,40.8753821 314.644646,42.2855821 316,43.44 C317.236795,44.4558677 318.680377,45.1896032 320.23,45.59 C321.023333,45.79 321.753333,45.94 322.42,46.04 C323.045438,46.1365442 323.677163,46.186681 324.31,46.19 C325.662057,46.1531581 327.004885,45.9550909 328.31,45.6 C329.874272,45.2391179 331.326493,44.5009914 332.54,43.45 C333.957194,42.3090398 335.098845,40.8631757 335.88,39.22 C336.838554,37.1028688 337.293781,34.7925098 337.21,32.47 L337.21,2.47 C337.204611,1.85836588 337.445201,1.27021546 337.877708,0.83770804 C338.310215,0.405200621 338.898366,0.164610838 339.51,0.17 L345.29,0.17 C345.901634,0.164610838 346.489785,0.405200621 346.922292,0.83770804 C347.354799,1.27021546 347.595389,1.85836588 347.59,2.47 L347.59,32.47 C347.595483,34.1220709 347.458307,35.7715302 347.18,37.4 C346.936243,38.967863 346.541061,40.508402 346,42 C344.959521,44.6949625 343.369074,47.1436385 341.33,49.19 C339.219046,51.2032327 336.722179,52.768027 333.99,53.79 C330.904856,54.9238212 327.636408,55.4764737 324.35,55.42 C321.076704,55.4720452 317.823023,54.9054501 314.76,53.75 L314.76,53.75 Z" id="Shape"></path>
                        <path d="M398.56,18.75 C398.10758,19.9548381 397.509829,21.0999676 396.78,22.16 C396.027619,23.210329 395.067852,24.0952207 393.96,24.76 C393.428417,25.1252742 392.854154,25.4241599 392.25,25.65 C391.756667,25.7966667 391.533333,25.9066667 391.58,25.98 C391.852652,26.1462775 392.154853,26.2583296 392.47,26.31 C393.136667,26.5566667 393.78,26.8033333 394.4,27.05 C395.727698,27.7274738 396.90993,28.6583115 397.88,29.79 C398.973676,30.9348034 399.854159,32.2656878 400.48,33.72 C401.141946,35.1877401 401.48288,36.7798988 401.48,38.39 C401.544694,40.9933684 401.078557,43.5826439 400.11,46 C399.323961,47.9367031 398.078058,49.6528229 396.48,51 C394.945149,52.3133296 393.111574,53.2301171 391.14,53.67 C390.1,53.9166667 389.036667,54.1133333 387.95,54.26 C386.819614,54.4103418 385.680333,54.4838438 384.54,54.48 L361.78,54.48 C361.168366,54.4853892 360.580215,54.2447994 360.147708,53.812292 C359.715201,53.3797845 359.474611,52.7916341 359.48,52.18 L359.48,2.43 C359.474611,1.81836588 359.715201,1.23021546 360.147708,0.79770804 C360.580215,0.365200621 361.168366,0.124610838 361.78,0.13 L383.36,0.13 C384.5,0.13 385.563333,0.18 386.55,0.28 C387.536667,0.38 388.536667,0.53 389.55,0.73 C391.371904,1.13912921 393.07988,1.94871023 394.55,3.1 C396.115336,4.27275935 397.312445,5.86890511 398,7.7 C398.940052,10.0808344 399.369327,12.6326345 399.26,15.19 C399.235008,16.408295 398.998139,17.6129417 398.56,18.75 L398.56,18.75 Z M372.16,22.24 L382.62,22.24 C383.567104,22.2624073 384.506054,22.0602247 385.36,21.65 C386.10174,21.2651497 386.758178,20.7345569 387.29,20.09 C387.821063,19.4303044 388.224611,18.6774671 388.48,17.87 C388.742426,17.080476 388.867572,16.2518095 388.85,15.42 C388.849315,14.6315274 388.696523,13.8505912 388.4,13.12 C388.132532,12.405443 387.728327,11.7498823 387.21,11.19 C386.714155,10.6587705 386.136938,10.2098242 385.5,9.86 C384.838063,9.5096839 384.098865,9.33090115 383.35,9.34 L372.15,9.34 C371.538366,9.33461084 370.950215,9.57520062 370.517708,10.007708 C370.085201,10.4402155 369.844611,11.0283659 369.85,11.64 L369.85,19.94 C369.844611,20.5516341 370.085201,21.1397845 370.517708,21.572292 C370.950215,22.0047994 371.538366,22.2453892 372.15,22.24 L372.16,22.24 Z M387.06,44.56 C387.873933,44.1549476 388.585175,43.5702246 389.14,42.85 C389.755517,42.1561805 390.23396,41.3519896 390.55,40.48 C390.912501,39.662143 391.090056,38.7743683 391.07,37.88 C391.086068,36.1323769 390.35903,34.460189 389.07,33.28 C387.508722,31.9485877 385.486699,31.2841574 383.44,31.43 L372.16,31.43 C371.548366,31.4246108 370.960215,31.6652006 370.527708,32.097708 C370.095201,32.5302155 369.854611,33.1183659 369.86,33.73 L369.86,42.92 C369.854611,43.5316341 370.095201,44.1197845 370.527708,44.552292 C370.960215,44.9847994 371.548366,45.2253892 372.16,45.22 L384.54,45.22 C385.425667,45.2329559 386.297713,45.0011024 387.06,44.55 L387.06,44.56 Z" id="Shape"></path>
                    </g>
                    <rect id="Rectangle-path" x="145.56" y="23.56" width="418.96" height="82.63"></rect>
                </g>
            </g>
        </g>
    </g>
</svg>